<?xml version="1.0" encoding="iso-8859-1"?>
<!-- Generator: Adobe Illustrator 19.0.0, SVG Export Plug-In . SVG Version: 6.00 Build 0)  -->
<svg version="1.1" id="Capa_1" xmlns="http://www.w3.org/2000/svg" xmlns:xlink="http://www.w3.org/1999/xlink" x="0px" y="0px"
	 viewBox="0 0 512 512" style="enable-background:new 0 0 512 512;" xml:space="preserve">
<g>
	<g>
		<path d="M256,0C114.848,0,0,114.848,0,256s114.848,256,256,256s256-114.848,256-256S397.152,0,256,0z M352,160
			c17.632,0,32,14.368,32,32s-14.368,32-32,32c-17.632,0-32-14.368-32-32S334.368,160,352,160z M160,160c17.632,0,32,14.368,32,32
			s-14.368,32-32,32s-32-14.368-32-32S142.368,160,160,160z M256,448c-85.6,0-161.536-57.44-184.672-139.648
			c-1.376-4.864-0.384-10.016,2.656-14.016c3.008-4,7.712-6.336,12.736-6.336h338.56c4.992,0,9.728,2.336,12.736,6.336
			s4,9.152,2.656,14.016C417.536,390.56,341.6,448,256,448z"/>
	</g>
</g>
<g>
</g>
<g>
</g>
<g>
</g>
<g>
</g>
<g>
</g>
<g>
</g>
<g>
</g>
<g>
</g>
<g>
</g>
<g>
</g>
<g>
</g>
<g>
</g>
<g>
</g>
<g>
</g>
<g>
</g>
</svg>
