<?xml version="1.0" encoding="iso-8859-1"?>
<!-- Generator: Adobe Illustrator 18.1.1, SVG Export Plug-In . SVG Version: 6.00 Build 0)  -->
<svg version="1.1" id="Capa_1" xmlns="http://www.w3.org/2000/svg" xmlns:xlink="http://www.w3.org/1999/xlink" x="0px" y="0px"
	 viewBox="0 0 26 26" style="enable-background:new 0 0 26 26;" xml:space="preserve">
<g>
	<path style="fill:#030104;" d="M15.086,20.626c-0.146,0.253-0.266,0.497-0.366,0.746C14.156,22.761,12.837,26,8.954,26
		c-3.542,0-4.642-3.665-4.642-5c0-0.553,0.448-1,1-1s1,0.447,1,1c0,0.03,0.28,3,2.642,3c2.113,0,3.063-1.292,3.913-3.377
		c0.134-0.334,0.294-0.661,0.487-0.997c0.275-0.479,0.889-0.643,1.366-0.366C15.199,19.536,15.363,20.147,15.086,20.626z
		 M24.698,24.71c-0.195,0.195-0.451,0.293-0.707,0.293s-0.512-0.098-0.707-0.293l-10.76-10.76c0,0.003,0.001,0.006,0.002,0.009
		l-4.15-4.152c0.001-0.001,0.002-0.002,0.003-0.003L1.302,2.728c-0.391-0.391-0.391-1.023,0-1.414s1.023-0.391,1.414,0l3.153,3.153
		C7.038,1.841,9.901,0,13.109,0c3.945,0,8.203,3.291,8.203,8.607c0,4.062-1.505,6.413-3.07,8.233l6.456,6.456
		C25.088,23.687,25.088,24.319,24.698,24.71z M16.825,15.424c1.367-1.609,2.487-3.482,2.487-6.817c0-4.081-3.22-6.607-6.203-6.607
		c-3.092,0-5.167,2.039-5.663,4.044L9.58,8.178C10.734,4.811,11.618,4,13.734,4c1.953,0,3.585,1.418,3.585,4.133
		C17.319,8.555,17.281,9,16.922,9c-0.917,0,0.328-3-2.688-3c-1.92,0-2.854,1.602-2.546,4.286L16.825,15.424z M7.312,17.115
		c0,0.309,0,1.893,2,1.893c1.18,0,2.35-1.048,2.914-2.521l-2.963-2.963c0.019,0.08,0.049,0.152,0.049,0.248
		C9.312,15.602,7.312,15.101,7.312,17.115z"/>
</g>
<g>
</g>
<g>
</g>
<g>
</g>
<g>
</g>
<g>
</g>
<g>
</g>
<g>
</g>
<g>
</g>
<g>
</g>
<g>
</g>
<g>
</g>
<g>
</g>
<g>
</g>
<g>
</g>
<g>
</g>
</svg>
